<mxfile host="app.diagrams.net" modified="2023-10-27T05:54:17.272Z" agent="Mozilla/5.0 (Windows NT 10.0; Win64; x64) AppleWebKit/537.36 (KHTML, like Gecko) Chrome/118.0.0.0 Safari/537.36 Edg/118.0.2088.69" etag="M726TID3YToKndy2Vu_N" version="22.0.8" type="device">
  <diagram name="第 1 页" id="fXLRXYf8Oi2lukQUHsDI">
    <mxGraphModel dx="1042" dy="577" grid="1" gridSize="10" guides="1" tooltips="1" connect="1" arrows="1" fold="1" page="1" pageScale="1" pageWidth="827" pageHeight="1169" math="0" shadow="0">
      <root>
        <mxCell id="0" />
        <mxCell id="1" parent="0" />
        <mxCell id="B8na7ZHptFfEXwOrgCOj-1" value="" style="sketch=0;aspect=fixed;pointerEvents=1;shadow=0;dashed=0;html=1;strokeColor=none;labelPosition=center;verticalLabelPosition=bottom;verticalAlign=top;align=center;fillColor=#00188D;shape=mxgraph.azure.laptop" vertex="1" parent="1">
          <mxGeometry x="70" y="210" width="150" height="90" as="geometry" />
        </mxCell>
        <mxCell id="B8na7ZHptFfEXwOrgCOj-2" value="" style="image;sketch=0;aspect=fixed;html=1;points=[];align=center;fontSize=12;image=img/lib/mscae/Cache_Redis_Product.svg;" vertex="1" parent="1">
          <mxGeometry x="114.05000000000001" y="220" width="61.9" height="52" as="geometry" />
        </mxCell>
        <mxCell id="B8na7ZHptFfEXwOrgCOj-3" value="&lt;font style=&quot;font-size: 16px;&quot;&gt;Computer&lt;/font&gt;" style="text;html=1;align=center;verticalAlign=middle;resizable=0;points=[];autosize=1;strokeColor=none;fillColor=none;" vertex="1" parent="1">
          <mxGeometry x="102.15" y="318" width="90" height="30" as="geometry" />
        </mxCell>
        <mxCell id="B8na7ZHptFfEXwOrgCOj-4" value="" style="endArrow=classic;html=1;rounded=0;exitX=0.542;exitY=0.008;exitDx=0;exitDy=0;exitPerimeter=0;" edge="1" parent="1" source="B8na7ZHptFfEXwOrgCOj-2">
          <mxGeometry width="50" height="50" relative="1" as="geometry">
            <mxPoint x="390" y="320" as="sourcePoint" />
            <mxPoint x="220" y="90" as="targetPoint" />
          </mxGeometry>
        </mxCell>
        <mxCell id="B8na7ZHptFfEXwOrgCOj-5" value="&lt;font style=&quot;font-size: 16px;&quot;&gt;ARP Cache&lt;/font&gt;" style="text;html=1;align=center;verticalAlign=middle;resizable=0;points=[];autosize=1;strokeColor=none;fillColor=none;" vertex="1" parent="1">
          <mxGeometry x="175.95" y="50" width="110" height="30" as="geometry" />
        </mxCell>
        <mxCell id="B8na7ZHptFfEXwOrgCOj-6" value="" style="endArrow=none;html=1;rounded=0;exitX=0.92;exitY=0.5;exitDx=0;exitDy=0;exitPerimeter=0;" edge="1" parent="1" source="B8na7ZHptFfEXwOrgCOj-1">
          <mxGeometry width="50" height="50" relative="1" as="geometry">
            <mxPoint x="390" y="320" as="sourcePoint" />
            <mxPoint x="520" y="255" as="targetPoint" />
          </mxGeometry>
        </mxCell>
        <mxCell id="B8na7ZHptFfEXwOrgCOj-7" value="" style="image;html=1;image=img/lib/clip_art/networking/Router_Icon_128x128.png" vertex="1" parent="1">
          <mxGeometry x="520" y="202.5" width="110" height="105" as="geometry" />
        </mxCell>
        <mxCell id="B8na7ZHptFfEXwOrgCOj-8" value="&lt;font style=&quot;font-size: 16px;&quot;&gt;Router&lt;/font&gt;" style="text;html=1;align=center;verticalAlign=middle;resizable=0;points=[];autosize=1;strokeColor=none;fillColor=none;" vertex="1" parent="1">
          <mxGeometry x="540" y="307.5" width="70" height="30" as="geometry" />
        </mxCell>
        <mxCell id="B8na7ZHptFfEXwOrgCOj-9" value="" style="sketch=0;pointerEvents=1;shadow=0;dashed=0;html=1;strokeColor=none;fillColor=#505050;labelPosition=center;verticalLabelPosition=bottom;verticalAlign=top;outlineConnect=0;align=center;shape=mxgraph.office.communications.local_move_request;" vertex="1" parent="1">
          <mxGeometry x="341" y="272" width="73" height="69" as="geometry" />
        </mxCell>
        <mxCell id="B8na7ZHptFfEXwOrgCOj-10" value="&lt;font style=&quot;font-size: 16px;&quot;&gt;ARP Request&lt;/font&gt;" style="text;html=1;align=center;verticalAlign=middle;resizable=0;points=[];autosize=1;strokeColor=none;fillColor=none;" vertex="1" parent="1">
          <mxGeometry x="317.5" y="341" width="120" height="30" as="geometry" />
        </mxCell>
        <mxCell id="B8na7ZHptFfEXwOrgCOj-11" value="" style="endArrow=classic;html=1;rounded=0;exitX=0.451;exitY=1.18;exitDx=0;exitDy=0;exitPerimeter=0;" edge="1" parent="1" source="B8na7ZHptFfEXwOrgCOj-10">
          <mxGeometry width="50" height="50" relative="1" as="geometry">
            <mxPoint x="390" y="320" as="sourcePoint" />
            <mxPoint x="340" y="430" as="targetPoint" />
          </mxGeometry>
        </mxCell>
        <mxCell id="B8na7ZHptFfEXwOrgCOj-12" value="Sender IP:&lt;br&gt;10.27.243.63" style="rounded=0;whiteSpace=wrap;html=1;fillColor=#dae8fc;strokeColor=#6c8ebf;" vertex="1" parent="1">
          <mxGeometry x="197.5" y="450" width="120" height="60" as="geometry" />
        </mxCell>
        <mxCell id="B8na7ZHptFfEXwOrgCOj-13" value="Sender MAC:&lt;br&gt;48:89:e7:82:05:fa" style="rounded=0;whiteSpace=wrap;html=1;fillColor=#dae8fc;strokeColor=#6c8ebf;" vertex="1" parent="1">
          <mxGeometry x="317.5" y="450" width="112.5" height="60" as="geometry" />
        </mxCell>
        <mxCell id="B8na7ZHptFfEXwOrgCOj-14" value="Target IP:&lt;br&gt;10.27.255.254" style="rounded=0;whiteSpace=wrap;html=1;fillColor=#dae8fc;strokeColor=#6c8ebf;" vertex="1" parent="1">
          <mxGeometry x="430" y="450" width="120" height="60" as="geometry" />
        </mxCell>
        <mxCell id="B8na7ZHptFfEXwOrgCOj-15" value="Target MAC:&lt;br&gt;00:00:00:00:00:00" style="rounded=0;whiteSpace=wrap;html=1;fillColor=#dae8fc;strokeColor=#6c8ebf;" vertex="1" parent="1">
          <mxGeometry x="550" y="450" width="112.5" height="60" as="geometry" />
        </mxCell>
        <mxCell id="B8na7ZHptFfEXwOrgCOj-16" value="OP:&lt;br&gt;Request" style="rounded=0;whiteSpace=wrap;html=1;fillColor=#dae8fc;strokeColor=#6c8ebf;" vertex="1" parent="1">
          <mxGeometry x="77.5" y="450" width="120" height="60" as="geometry" />
        </mxCell>
        <mxCell id="B8na7ZHptFfEXwOrgCOj-17" value="&lt;font style=&quot;font-size: 16px;&quot;&gt;IP:10.27.243.63&lt;br&gt;MAC:48:89:e7:82:05:fa&lt;/font&gt;" style="text;html=1;align=center;verticalAlign=middle;resizable=0;points=[];autosize=1;strokeColor=none;fillColor=none;" vertex="1" parent="1">
          <mxGeometry x="60" y="348" width="190" height="50" as="geometry" />
        </mxCell>
        <mxCell id="B8na7ZHptFfEXwOrgCOj-18" value="" style="sketch=0;pointerEvents=1;shadow=0;dashed=0;html=1;strokeColor=none;fillColor=#505050;labelPosition=center;verticalLabelPosition=bottom;verticalAlign=top;outlineConnect=0;align=center;shape=mxgraph.office.communications.local_move_request;" vertex="1" parent="1">
          <mxGeometry x="337.25" y="180" width="73" height="69" as="geometry" />
        </mxCell>
        <mxCell id="B8na7ZHptFfEXwOrgCOj-19" value="&lt;font style=&quot;font-size: 16px;&quot;&gt;ARP Reply&lt;/font&gt;" style="text;html=1;align=center;verticalAlign=middle;resizable=0;points=[];autosize=1;strokeColor=none;fillColor=none;" vertex="1" parent="1">
          <mxGeometry x="320" y="140" width="100" height="30" as="geometry" />
        </mxCell>
        <mxCell id="B8na7ZHptFfEXwOrgCOj-20" value="" style="endArrow=classic;html=1;rounded=0;exitX=0.548;exitY=-0.04;exitDx=0;exitDy=0;exitPerimeter=0;" edge="1" parent="1" source="B8na7ZHptFfEXwOrgCOj-19">
          <mxGeometry width="50" height="50" relative="1" as="geometry">
            <mxPoint x="382" y="386" as="sourcePoint" />
            <mxPoint x="510" y="90" as="targetPoint" />
          </mxGeometry>
        </mxCell>
        <mxCell id="B8na7ZHptFfEXwOrgCOj-21" value="Sender IP:&lt;br&gt;10.27.255.254" style="rounded=0;whiteSpace=wrap;html=1;fillColor=#d5e8d4;strokeColor=#82b366;" vertex="1" parent="1">
          <mxGeometry x="440" y="20" width="120" height="60" as="geometry" />
        </mxCell>
        <mxCell id="B8na7ZHptFfEXwOrgCOj-22" value="Sender MAC:&lt;br&gt;74:25:8a:e3:6d:a9" style="rounded=0;whiteSpace=wrap;html=1;fillColor=#d5e8d4;strokeColor=#82b366;" vertex="1" parent="1">
          <mxGeometry x="560" y="20" width="112.5" height="60" as="geometry" />
        </mxCell>
        <mxCell id="B8na7ZHptFfEXwOrgCOj-23" value="Target IP:&lt;br&gt;10.27.243.63" style="rounded=0;whiteSpace=wrap;html=1;fillColor=#d5e8d4;strokeColor=#82b366;" vertex="1" parent="1">
          <mxGeometry x="672.5" y="20" width="120" height="60" as="geometry" />
        </mxCell>
        <mxCell id="B8na7ZHptFfEXwOrgCOj-24" value="Target MAC:&lt;br&gt;48:89:e7:82:05:fa" style="rounded=0;whiteSpace=wrap;html=1;fillColor=#d5e8d4;strokeColor=#82b366;" vertex="1" parent="1">
          <mxGeometry x="792.5" y="20" width="112.5" height="60" as="geometry" />
        </mxCell>
        <mxCell id="B8na7ZHptFfEXwOrgCOj-25" value="OP:&lt;br&gt;Reply" style="rounded=0;whiteSpace=wrap;html=1;fillColor=#d5e8d4;strokeColor=#82b366;" vertex="1" parent="1">
          <mxGeometry x="320" y="20" width="120" height="60" as="geometry" />
        </mxCell>
        <mxCell id="B8na7ZHptFfEXwOrgCOj-26" value="&lt;font style=&quot;font-size: 16px;&quot;&gt;IP:10.27.243.63&lt;br&gt;MAC:74:25:8a:e3:6d:a9&lt;/font&gt;" style="text;html=1;align=center;verticalAlign=middle;resizable=0;points=[];autosize=1;strokeColor=none;fillColor=none;" vertex="1" parent="1">
          <mxGeometry x="482.5" y="341" width="190" height="50" as="geometry" />
        </mxCell>
      </root>
    </mxGraphModel>
  </diagram>
</mxfile>
